<?xml version="1.0" encoding="UTF-8"?>
<svg id="Capa_1" data-name="Capa 1" xmlns="http://www.w3.org/2000/svg" viewBox="0 0 476.25 330.7">
  <defs>
    <style>
      .cls-1 {
        fill: #22c55e;
        font-family: HelveticaNeue-HeavyItalic, 'Helvetica Neue';
        font-size: 111.41px;
        font-style: italic;
        font-weight: 800;
      }

      .cls-1, .cls-2 {
        isolation: isolate;
      }

      .cls-3 {
        fill: #fff;
      }
    </style>
  </defs>
  <g id="Capa_1-2" data-name="Capa 1">
    <g class="cls-2">
      <text class="cls-1" transform="translate(36.4 226.29) scale(.81 1)"><tspan x="0" y="0">GAP</tspan></text>
    </g>
    <path class="cls-3" d="M114.86,34.98c4.44-4.37,9.3-8.72,14.59-13.06,5.28-4.34,10.91-8.16,16.87-11.46,5.96-3.3,12.15-5.95,18.58-7.93,6.43-1.98,13.06-2.8,19.91-2.45,5.41.2,10.44,1.48,15.09,3.84,4.64,2.36,8.45,5.8,11.42,10.34s4.85,10.17,5.66,16.9c.81,6.73.14,14.57-2,23.52-1.24,4.94-2.73,9.95-4.47,15.02-1.74,5.07-3.63,9.86-5.66,14.35-2.04,4.5-4.15,8.56-6.35,12.2-2.19,3.64-4.36,6.49-6.51,8.56-3.9,3.82-7.31,5.85-10.24,6.09s-5.12-.44-6.58-2.05-1.96-3.74-1.51-6.41c.46-2.67,2.25-5.11,5.38-7.32,3.05-1.49,6.08-3.59,9.08-6.3,3-2.7,5.83-5.82,8.49-9.35s5.02-7.29,7.07-11.31c2.05-4.01,3.72-8.13,5-12.34,2.07-7.15,2.74-13.51,1.99-19.09-.75-5.57-2.49-10.31-5.22-14.22s-6.34-6.91-10.83-9.01-9.44-3.25-14.86-3.45c-6.26-.17-12.27.71-18.03,2.65-5.76,1.94-11.32,4.59-16.68,7.95-5.36,3.37-10.51,7.21-15.42,11.52-4.92,4.32-9.61,8.78-14.08,13.39-7.71,7.89-15.84,17.25-24.4,28.07-8.56,10.82-16.85,22.55-24.87,35.18s-15.51,25.89-22.45,39.78c-6.95,13.89-12.72,27.87-17.33,41.94s-7.72,28-9.34,41.78-1.08,26.79,1.63,39.03c1.37,6.54,3.34,12.24,5.91,17.1,2.57,4.86,5.59,8.92,9.06,12.18s7.27,5.83,11.42,7.71,8.55,3.13,13.2,3.73c5.83.85,11.99.83,18.48-.06,6.49-.89,13.12-2.47,19.88-4.72,6.76-2.25,13.51-5.02,20.25-8.3,6.74-3.28,13.28-6.95,19.63-11,11.11-6.93,22.09-14.66,32.95-23.19,10.85-8.53,21.21-17.23,31.08-26.1,11.85-10.6,22.44-20.94,31.77-31.01,9.32-10.08,16.84-18.74,22.55-26,1.68-2.24,3.24-3.53,4.66-3.86s2.45-.07,3.09.78c.64.85.77,2.19.39,4.03-.37,1.84-1.51,3.74-3.4,5.71-7.31,8.66-15.51,17.8-24.6,27.41-9.1,9.62-18.86,19.32-29.31,29.1-10.85,10.22-22.1,19.94-33.75,29.18-11.65,9.23-23.52,17.32-35.6,24.27-5.82,3.74-12,7.11-18.54,10.11-6.54,3-13.19,5.45-19.97,7.34s-13.56,3.23-20.35,4.04c-6.79.8-13.41.87-19.86.19-11.12-1.04-21.05-4.31-29.77-9.81-8.73-5.5-15.71-13.78-20.96-24.83-4.18-8.53-6.48-18.01-6.9-28.44s.54-21.38,2.89-32.85c2.34-11.47,5.9-23.27,10.67-35.39,4.77-12.12,10.28-24.17,16.54-36.14s13.07-23.7,20.43-35.19,14.77-22.34,22.24-32.55c7.47-10.21,14.81-19.56,22.04-28.04,7.23-8.49,13.87-15.73,19.93-21.74l.02-.02Z"/>
    <path class="cls-3" d="M309.39,187.49c-4.75-.12-9.22-.48-13.42-1.08,0,2.64-.33,5.5-.99,8.56s-1.56,6.13-2.7,9.19-2.58,6.01-4.32,8.83c-1.74,2.82-3.76,5.26-6.04,7.3-1.92,1.8-4.3,3.27-7.12,4.41s-5.65,1.71-8.47,1.71-5.5-.66-8.02-1.98-4.5-3.42-5.95-6.31c-1.2-2.4-1.95-5.07-2.25-8.02-.3-2.94-.3-5.92,0-8.92s.9-5.97,1.8-8.92c.9-2.94,1.95-5.68,3.15-8.2,2.28-4.68,5.25-8.95,8.92-12.79,3.66-3.84,7.78-6.96,12.34-9.37,4.56-2.4,9.49-3.96,14.78-4.69,5.28-.72,10.69-.3,16.22,1.26,1.56,1.08,2.31,2.22,2.25,3.42s-.6,2.19-1.62,2.97-2.37,1.2-4.05,1.26-3.31-.45-4.87-1.53c-3.6-1.8-6.85-2.31-9.73-1.53s-5.5,2.4-7.84,4.86-4.36,5.53-6.04,9.19c-1.68,3.67-3.04,7.48-4.05,11.44-1.02,3.96-1.77,7.81-2.25,11.53s-.66,6.85-.54,9.37c.24,3.12,1.26,5.02,3.06,5.68s3.96-.27,6.49-2.79c1.56-1.56,3.06-3.57,4.5-6.04,1.44-2.46,2.67-5.01,3.69-7.66,1.02-2.64,1.86-5.14,2.52-7.48s1.05-4.23,1.17-5.68c-3.72-1.2-6.31-2.67-7.75-4.41s-2.1-3.45-1.98-5.14c.12-1.68.78-3.12,1.98-4.32s2.58-1.86,4.14-1.98c1.56-.12,3.12.54,4.68,1.98s2.76,3.96,3.6,7.57c3.84.6,12.18,1.34,16.69,1.4l-2,6.89.02.02Z"/>
    <path class="cls-3" d="M300.17,206.95c.12-3.96.9-8.14,2.34-12.52,1.44-4.38,3.42-8.71,5.95-12.97,2.52-4.26,5.46-8.2,8.83-11.8,3.36-3.6,7.03-6.6,10.99-9.01,3.96-2.4,8.2-3.96,12.7-4.68s9.04-.3,13.6,1.26c3.12-13.69,6.46-26.64,10-38.83s7.12-23.12,10.72-32.79,7.12-17.9,10.54-24.69,6.69-11.68,9.82-14.68c2.76-3.24,5.77-5.65,9.01-7.21,3.24-1.56,6.24-2.07,9.01-1.53,2.76.54,4.96,2.31,6.58,5.32,1.62,3,2.19,7.45,1.71,13.33-.48,5.29-1.71,11.17-3.69,17.66s-4.48,13.24-7.48,20.27-6.4,14.21-10.18,21.53c-3.78,7.33-7.69,14.57-11.71,21.71-4.03,7.15-8.02,14-11.98,20.54-3.96,6.55-7.69,12.58-11.17,18.11-3,7.81-5.8,16.13-8.38,24.96-2.58,8.83-4.81,17.84-6.67,27.03-1.86,9.19-3.25,18.5-4.16,27.93s-1.12,18.71-.62,27.84c.48,9.61,2.25,17.48,5.32,23.6,3.06,6.13,7.72,10.81,13.96,14.06,2.16,1.2,3.27,2.58,3.33,4.14s-.6,2.85-1.98,3.87-3.31,1.44-5.77,1.26-5.08-1.47-7.84-3.88c-3.96-3.72-7.02-9.19-9.18-16.4-2.15-7.21-3.54-15.68-4.16-25.4-.84-12.97-.53-27.3.95-42.97,1.47-15.68,3.62-31.74,6.44-48.2-2.33,3.72-4.95,7.69-7.87,11.89-2.92,4.21-6.03,7.96-9.33,11.26-3.31,3.31-6.79,5.77-10.45,7.39-3.67,1.62-7.42,1.65-11.26.09-3-1.2-5.1-3.48-6.31-6.85-1.2-3.36-1.74-6.91-1.62-10.63h.01ZM352.6,164.78c-3.49-1.92-6.91-1.95-10.27-.09-3.36,1.86-6.49,4.5-9.37,7.93s-5.35,7.18-7.39,11.26c-2.04,4.09-3.49,7.39-4.33,9.91-.36.84-.72,2.01-1.08,3.51s-.66,3.06-.9,4.68-.3,3.18-.18,4.68.48,2.67,1.08,3.51c.72.84,2.25.15,4.59-2.07s5.07-5.5,8.2-9.82c3.12-4.32,6.46-9.4,10-15.23,3.54-5.83,6.76-11.92,9.64-18.29v.02ZM394.58,82.44c-5.04,9.73-9.55,20.75-13.51,33.06-3.96,12.31-7.45,24.72-10.45,37.21,2.88-5.16,5.86-10.6,8.92-16.31,3.06-5.7,6.06-11.47,9.01-17.3,2.94-5.83,5.74-11.68,8.38-17.57,2.64-5.88,5.04-11.53,7.21-16.94,3-7.69,4.87-13.39,5.59-17.12.72-3.72.54-5.61-.54-5.68-1.08-.06-2.91,1.65-5.5,5.14-2.58,3.49-5.62,8.65-9.1,15.5h0Z"/>
    <path class="cls-3" d="M377.3,173.94c1.68-2.4,3.72-4.86,6.13-7.39,2.4-2.52,5.05-4.77,7.93-6.76,2.88-1.98,5.95-3.45,9.19-4.41s6.61-1.08,10.09-.36c3.24.72,5.7,1.92,7.39,3.6,1.68,1.68,2.64,3.54,2.88,5.59.36,2.4-.3,4.66-1.98,6.76-1.68,2.1-4,3.94-6.94,5.5-2.95,1.56-6.37,2.79-10.27,3.69-3.91.9-7.9,1.29-11.98,1.17-1.2,2.76-2.31,5.89-3.33,9.37-1.02,3.49-1.53,6.94-1.53,10.36s.69,6.58,2.07,9.46,3.87,5.05,7.48,6.49c3.72,1.56,8.02,1.89,12.88.99,4.87-.9,9.91-2.52,15.14-4.86s10.36-5.14,15.41-8.38,9.67-6.46,13.87-9.64c4.2-3.18,7.75-6.04,10.63-8.56s4.68-4.26,5.41-5.23c1.32-1.68,2.7-2.79,4.14-3.33s2.55-.6,3.33-.18,1.11,1.32.99,2.7-1.14,3.09-3.06,5.14c-2.76,3.24-6.19,6.64-10.27,10.18-4.08,3.54-8.56,6.94-13.42,10.18-4.87,3.24-10.03,6.31-15.5,9.19s-11.02,5.23-16.67,7.03c-5.65,1.8-11.23,3.04-16.76,3.69-5.53.66-10.81.45-15.86-.63-6.49-1.56-11.11-4.29-13.87-8.2-2.76-3.9-4.2-8.29-4.32-13.15s.87-9.97,2.97-15.32c2.1-5.34,4.71-10.24,7.84-14.68h-.01ZM405.95,162.04c-.36-.72-.87-1.11-1.53-1.17-.66-.06-1.5.36-2.52,1.26-1.02.9-2.28,2.37-3.78,4.41s-3.22,4.86-5.14,8.47c1.8.24,3.57-.09,5.32-.99,1.74-.9,3.27-2.04,4.59-3.42s2.28-2.88,2.88-4.5.66-2.97.18-4.05h0Z"/>
  </g>
</svg>